Coordinates
version=1
nRows=10
nColumns=40
inDegrees=yes

Units are S.I. units (second, meters, Newtons, ...)
If the header above contains a line with 'inDegrees', this indicates whether rotational values are in degrees (yes) or radians (no).

endheader
time	pelvis_tilt	pelvis_list	pelvis_rotation	pelvis_tx	pelvis_ty	pelvis_tz	hip_flexion_r	hip_adduction_r	hip_rotation_r	knee_angle_r	knee_angle_r_beta	ankle_angle_r	subtalar_angle_r	mtp_angle_r	hip_flexion_l	hip_adduction_l	hip_rotation_l	knee_angle_l	knee_angle_l_beta	ankle_angle_l	subtalar_angle_l	mtp_angle_l	lumbar_extension	lumbar_bending	lumbar_rotation	arm_flex_r	arm_add_r	arm_rot_r	elbow_flex_r	pro_sup_r	wrist_flex_r	wrist_dev_r	arm_flex_l	arm_add_l	arm_rot_l	elbow_flex_l	pro_sup_l	wrist_flex_l	wrist_dev_l
      1.00000000	      0.28454921	      1.95207212	     -0.54313248	     -0.28460445	      1.01583787	     -0.73436595	      8.83317434	      3.31503473	      0.55115499	     18.06064279	      0.31521768	      3.48454479	      0.00000000	      0.00000000	      9.85657007	      2.06985958	      2.21450686	     84.46380749	      1.47417154	     -3.12219868	      0.00000000	      0.00000000	    -19.28470023	      0.28390628	      0.49174931	     81.98330444	    -15.76357300	     17.66291383	     47.76101229	     87.50671235	      0.00000000	      0.00000000	     86.05724704	     -9.85485343	     23.30381910	     39.53318138	     86.84400960	      0.00000000	      0.00000000
      1.00500000	      0.23443453	      1.93666245	     -0.45007639	     -0.28482803	      1.01566835	     -0.73454085	      8.98480232	      3.30877207	      0.47891322	     18.23580705	      0.31827487	      3.50984987	      0.00000000	      0.00000000	      9.92373371	      2.06966253	      2.29440620	     84.51651875	      1.47509152	     -3.10156478	      0.00000000	      0.00000000	    -19.31244365	      0.32092799	      0.45165761	     82.05853849	    -15.81166192	     17.65333530	     47.76636018	     87.52577698	      0.00000000	      0.00000000	     86.09407234	     -9.83184852	     23.31312207	     39.57804565	     86.82510251	      0.00000000	      0.00000000
      1.01000000	      0.16771277	      2.00244277	     -0.39715976	     -0.28504293	      1.01541910	     -0.73470377	      9.18100792	      3.20662570	      0.40809532	     18.48955659	      0.32270364	      3.75097895	      0.00000000	      0.00000000	     10.00968112	      2.15550281	      2.33813818	     84.53739391	      1.47545586	     -3.23899330	      0.00000000	      0.00000000	    -19.31572909	      0.24954452	      0.43717691	     82.08996782	    -15.99631500	     17.84963467	     47.94303165	     87.69774252	      0.00000000	      0.00000000	     86.21619812	     -9.91276396	     23.88779650	     39.63167854	     86.21719376	      0.00000000	      0.00000000
      1.01500000	      0.11968208	      1.94136447	     -0.32699491	     -0.28524370	      1.01528938	     -0.73481571	      9.28190871	      3.25809281	      0.39451348	     18.55126910	      0.32378073	      3.63297884	      0.00000000	      0.00000000	     10.05830798	      2.07980177	      2.36004374	     84.58511895	      1.47628882	     -3.08310294	      0.00000000	      0.00000000	    -19.32818331	      0.34092308	      0.38186030	     82.15436748	    -15.83965006	     17.62422857	     47.78366676	     87.55386033	      0.00000000	      0.00000000	     86.15517240	     -9.76962340	     23.21572667	     39.60345852	     86.79666686	      0.00000000	      0.00000000
      1.02000000	      0.04788400	      1.96230408	     -0.26729927	     -0.28550284	      1.01503991	     -0.73493893	      9.50094967	      3.20413452	      0.26478291	     18.82399820	      0.32854075	      3.75816826	      0.00000000	      0.00000000	     10.13830686	      2.09116889	      2.37716681	     84.61237228	      1.47676448	     -3.10523130	      0.00000000	      0.00000000	    -19.34000924	      0.31683363	      0.37334911	     82.23043284	    -16.00710549	     17.82037096	     47.89917856	     87.62453266	      0.00000000	      0.00000000	     86.31118862	     -9.86378376	     23.82804315	     39.61801793	     86.47602529	      0.00000000	      0.00000000
      1.02500000	      0.00126633	      1.94489814	     -0.21804377	     -0.28570929	      1.01491320	     -0.73506078	      9.59272433	      3.20589342	      0.27061879	     18.86852893	      0.32931795	      3.67235348	      0.00000000	      0.00000000	     10.17952526	      2.06518231	      2.40363868	     84.63369169	      1.47713658	     -3.03799265	      0.00000000	      0.00000000	    -19.35190785	      0.36321631	      0.34640058	     82.30562509	    -15.88802673	     17.63897159	     47.72172886	     87.55744497	      0.00000000	      0.00000000	     86.25114902	     -9.72222260	     23.28944033	     39.57533433	     86.76542196	      0.00000000	      0.00000000
      1.03000000	     -0.05456521	      1.94217428	     -0.17538495	     -0.28597267	      1.01472828	     -0.73516095	      9.74680696	      3.18995935	      0.24517817	     19.02825272	      0.33210566	      3.69378290	      0.00000000	      0.00000000	     10.24150242	      2.06628852	      2.44493757	     84.66560281	      1.47769353	     -3.07794228	      0.00000000	      0.00000000	    -19.37973988	      0.37140324	      0.34828553	     82.37735423	    -15.94825938	     17.68334235	     47.76029099	     87.57377884	      0.00000000	      0.00000000	     86.31352621	     -9.71576413	     23.37382579	     39.61146483	     86.72174620	      0.00000000	      0.00000000
      1.03500000	     -0.10159593	      1.97558946	     -0.15386583	     -0.28619184	      1.01455924	     -0.73523161	      9.90697500	      3.13350604	      0.19783137	     19.23122596	      0.33564821	      3.79725285	      0.00000000	      0.00000000	     10.28979167	      2.08830391	      2.42973798	     84.67958234	      1.47793752	     -3.16791381	      0.00000000	      0.00000000	    -19.41597535	      0.33514232	      0.35124269	     82.42783634	    -16.02444921	     17.75147817	     47.86356660	     87.65654209	      0.00000000	      0.00000000	     86.39433082	     -9.76754432	     23.63764250	     39.66467612	     86.51161770	      0.00000000	      0.00000000
      1.04000000	     -0.16797642	      1.95470968	     -0.11419003	     -0.28647285	      1.01433235	     -0.73529599	     10.13278006	      3.12583439	      0.05284241	     19.51696949	      0.34063538	      3.80344254	      0.00000000	      0.00000000	     10.36713000	      2.06346683	      2.43655189	     84.73705823	      1.47894066	     -3.04982880	      0.00000000	      0.00000000	    -19.42906819	      0.37803801	      0.33513546	     82.54320274	    -15.99498978	     17.77827362	     47.77140389	     87.50298536	      0.00000000	      0.00000000	     86.42091292	     -9.71323147	     23.38007056	     39.63220683	     86.83691645	      0.00000000	      0.00000000
      1.04500000	     -0.23101810	      1.96444829	     -0.11718606	     -0.28673267	      1.01413406	     -0.73527842	     10.29291949	      3.10489610	      0.03898422	     19.65887600	      0.34311211	      3.83152779	      0.00000000	      0.00000000	     10.43603459	      2.04805207	      2.39458662	     84.76884099	      1.47949538	     -3.12536754	      0.00000000	      0.00000000	    -19.44305426	      0.35118659	      0.35601567	     82.60702531	    -15.98370936	     17.73351539	     47.74168692	     87.55564283	      0.00000000	      0.00000000	     86.47369224	     -9.73299139	     23.49697947	     39.66544868	     86.77107968	      0.00000000	      0.00000000
